<svg xmlns="http://www.w3.org/2000/svg" width="503" height="118" viewBox="0 0 503 118">
  <g fill="none" fill-rule="evenodd">
    <g fill="#0F0E0F" transform="translate(142 10)">
      <path d="M69.373 41.691L39.106 41.691C38.325 41.691 37.692 42.325 37.692 43.106L37.692 57.904C37.692 58.685 38.325 59.321 39.106 59.321L50.913 59.321 50.913 77.706C50.913 77.706 48.262 78.61 40.932 78.61 32.285 78.61 20.205 75.45 20.205 48.886 20.205 22.317 32.784 18.821 44.593 18.821 54.816 18.821 59.219 20.621 62.022 21.488 62.903 21.758 63.717 20.881 63.717 20.1L67.093 5.802C67.093 5.436 66.969 4.996 66.553 4.697 65.415 3.885 58.472 0 40.932 0 20.726 0 0 8.597 0 49.922 0 91.248 23.73 97.407 43.727 97.407 60.284 97.407 70.328 90.331 70.328 90.331 70.742 90.103 70.787 89.524 70.787 89.259L70.787 43.106C70.787 42.325 70.154 41.691 69.373 41.691zM225.357 4.952C225.357 4.165 224.733 3.529 223.951 3.529L206.909 3.529C206.131 3.529 205.498 4.165 205.498 4.952 205.498 4.956 205.503 37.886 205.503 37.886L178.938 37.886 178.938 4.952C178.938 4.165 178.312 3.529 177.532 3.529L160.491 3.529C159.716 3.529 159.083 4.165 159.083 4.952L159.083 94.13C159.083 94.916 159.716 95.556 160.491 95.556L177.532 95.556C178.312 95.556 178.938 94.916 178.938 94.13L178.938 55.985 205.503 55.985C205.503 55.985 205.456 94.127 205.456 94.13 205.456 94.916 206.088 95.556 206.868 95.556L223.95 95.556C224.731 95.556 225.355 94.916 225.357 94.13L225.357 4.952zM101.532 16.654C101.532 10.518 96.613 5.559 90.543 5.559 84.479 5.559 79.555 10.518 79.555 16.654 79.555 22.784 84.479 27.757 90.543 27.757 96.613 27.757 101.532 22.784 101.532 16.654zM100.314 75.318C100.314 73.033 100.314 34.153 100.314 34.153 100.314 33.372 99.683 32.733 98.904 32.733L81.915 32.733C81.136 32.733 80.439 33.536 80.439 34.318 80.439 34.318 80.439 83.852 80.439 93.295 80.439 95.028 81.519 95.543 82.916 95.543 82.916 95.543 90.168 95.543 98.222 95.543 99.902 95.543 100.314 94.719 100.314 93.267 100.314 90.106 100.314 77.722 100.314 75.318zM290.124 32.867L273.213 32.867C272.438 32.867 271.806 33.506 271.806 34.293L271.806 78.019C271.806 78.019 267.509 81.163 261.411 81.163 255.314 81.163 253.696 78.396 253.696 72.425 253.696 66.447 253.696 34.293 253.696 34.293 253.696 33.506 253.066 32.867 252.289 32.867L235.125 32.867C234.351 32.867 233.716 33.506 233.716 34.293 233.716 34.293 233.716 57.579 233.716 75.312 233.716 93.047 243.6 97.386 257.197 97.386 268.353 97.386 277.347 91.223 277.347 91.223 277.347 91.223 277.775 94.471 277.969 94.856 278.162 95.24 278.667 95.628 279.213 95.628L290.132 95.58C290.906 95.58 291.541 94.94 291.541 94.156L291.535 34.293C291.535 33.506 290.904 32.867 290.124 32.867zM329.676 81.109C323.81 80.93 319.831 78.268 319.831 78.268L319.831 50.028C319.831 50.028 323.756 47.622 328.572 47.192 334.662 46.646 340.53 48.486 340.53 63.013 340.53 78.333 337.882 81.356 329.676 81.109zM336.346 30.864C326.741 30.864 320.208 35.149 320.208 35.149L320.208 4.952C320.208 4.165 319.578 3.529 318.802 3.529L301.711 3.529C300.934 3.529 300.303 4.165 300.303 4.952L300.303 94.13C300.303 94.916 300.934 95.556 301.713 95.556 301.715 95.556 313.567 95.556 313.571 95.556 314.105 95.556 314.509 95.281 314.808 94.799 315.103 94.32 315.528 90.687 315.528 90.687 315.528 90.687 322.516 97.31 335.745 97.31 351.277 97.31 360.184 89.432 360.184 61.944 360.184 34.456 345.958 30.864 336.346 30.864zM149.294 32.725L136.51 32.725C136.51 32.725 136.491 15.84 136.491 15.836 136.491 15.197 136.161 14.877 135.422 14.877L118.002 14.877C117.324 14.877 116.961 15.176 116.961 15.826L116.961 33.279C116.961 33.279 108.231 35.386 107.64 35.556 107.053 35.727 106.62 36.269 106.62 36.916L106.62 47.883C106.62 48.671 107.25 49.307 108.029 49.307L116.961 49.307C116.961 49.307 116.961 60.778 116.961 75.692 116.961 95.288 130.707 97.213 139.982 97.213 144.221 97.213 149.291 95.852 150.128 95.543 150.634 95.357 150.928 94.833 150.928 94.264L150.943 82.2C150.943 81.413 150.278 80.776 149.529 80.776 148.783 80.776 146.879 81.079 144.917 81.079 138.637 81.079 136.51 78.16 136.51 74.381 136.51 70.604 136.509 49.307 136.509 49.307L149.294 49.307C150.072 49.307 150.704 48.671 150.704 47.883L150.704 34.146C150.704 33.359 150.072 32.725 149.294 32.725z"/>
    </g>
    <g fill="#161514">
      <path d="M60.388,0 C27.041,0 0,27.036 0,60.388 C0,87.069 17.303,109.705 41.297,117.69 C44.315,118.249 45.423,116.38 45.423,114.785 C45.423,113.345 45.367,108.588 45.341,103.542 C28.541,107.195 24.996,96.417 24.996,96.417 C22.249,89.437 18.291,87.581 18.291,87.581 C12.812,83.833 18.704,83.91 18.704,83.91 C24.768,84.336 27.961,90.133 27.961,90.133 C33.347,99.365 42.088,96.696 45.534,95.153 C46.076,91.25 47.641,88.586 49.368,87.078 C35.955,85.551 21.855,80.373 21.855,57.234 C21.855,50.641 24.214,45.254 28.077,41.025 C27.45,39.504 25.383,33.362 28.662,25.044 C28.662,25.044 33.733,23.421 45.273,31.234 C50.09,29.896 55.256,29.225 60.388,29.202 C65.52,29.225 70.69,29.896 75.516,31.234 C87.042,23.421 92.106,25.044 92.106,25.044 C95.393,33.362 93.325,39.504 92.698,41.025 C96.57,45.254 98.913,50.641 98.913,57.234 C98.913,80.428 84.786,85.535 71.339,87.03 C73.505,88.904 75.435,92.579 75.435,98.213 C75.435,106.293 75.365,112.796 75.365,114.785 C75.365,116.392 76.452,118.275 79.513,117.682 C103.494,109.688 120.775,87.06 120.775,60.388 C120.775,27.036 93.738,0 60.388,0"/>
      <path d="M22.872 86.704C22.739 87.004 22.267 87.094 21.837 86.888 21.399 86.691 21.153 86.282 21.295 85.981 21.425 85.672 21.898 85.586 22.335 85.793 22.774 85.99 23.024 86.403 22.872 86.704M25.318 89.432C25.03 89.699 24.467 89.575 24.085 89.153 23.69 88.732 23.616 88.169 23.908 87.898 24.205 87.631 24.751 87.756 25.147 88.177 25.542 88.603 25.619 89.162 25.318 89.432M27.699 92.91C27.329 93.167 26.724 92.926 26.35 92.389 25.98 91.852 25.98 91.208 26.358 90.95 26.733 90.692 27.329 90.924 27.708 91.457 28.077 92.003 28.077 92.647 27.699 92.91M30.961 96.27C30.63 96.635 29.925 96.537 29.409 96.039 28.881 95.552 28.734 94.861 29.066 94.496 29.401 94.13 30.11 94.233 30.63 94.727 31.154 95.213 31.314 95.909 30.961 96.27M35.461 98.221C35.315 98.694 34.636 98.909 33.952 98.708 33.269 98.501 32.822 97.947 32.96 97.469 33.102 96.993 33.784 96.769 34.473 96.984 35.155 97.19 35.603 97.74 35.461 98.221M40.403 98.583C40.42 99.081 39.84 99.494 39.122 99.503 38.4 99.519 37.816 99.116 37.808 98.626 37.808 98.123 38.375 97.714 39.097 97.702 39.815 97.688 40.403 98.088 40.403 98.583M45.002 97.8C45.088 98.286 44.589 98.785 43.876 98.918 43.175 99.046 42.526 98.746 42.437 98.264 42.35 97.766 42.858 97.267 43.558 97.138 44.272 97.014 44.911 97.306 45.002 97.8"/>
    </g>
  </g>
</svg>
